Coordinates
version=1
nRows=5
nColumns=40
inDegrees=yes

Units are S.I. units (second, meters, Newtons, ...)
Angles are in degrees.

endheader
time	pelvis_tilt	pelvis_list	pelvis_rotation	pelvis_tx	pelvis_ty	pelvis_tz	hip_flexion_r	hip_adduction_r	hip_rotation_r	knee_angle_r	knee_angle_r_beta	ankle_angle_r	subtalar_angle_r	mtp_angle_r	hip_flexion_l	hip_adduction_l	hip_rotation_l	knee_angle_l	knee_angle_l_beta	ankle_angle_l	subtalar_angle_l	mtp_angle_l	lumbar_extension	lumbar_bending	lumbar_rotation	arm_flex_r	arm_add_r	arm_rot_r	elbow_flex_r	pro_sup_r	wrist_flex_r	wrist_dev_r	arm_flex_l	arm_add_l	arm_rot_l	elbow_flex_l	pro_sup_l	wrist_flex_l	wrist_dev_l
      1.51000000	      0.85881843	     -1.82341142	     12.47133692	     -0.31188413	      0.93537839	     -1.02917988	     23.23570190	     -5.21553136	    -21.73600417	    -21.50080060	     -0.37525976	     -5.86463696	     -3.64479134	      1.55239163	    -12.04152663	      9.54709768	     10.53334975	    -25.46893468	     -0.44451677	      0.33496629	     -5.86349591	    -15.08510338	     -5.63862935	      3.18931949	     -9.76869734	     -3.59768511	     -8.72051457	    -19.33946440	     16.02759953	     89.95437384	      0.00000000	      0.00000000	     13.10891768	     13.44331127	     -3.40447732	     34.36949432	     89.95437384	      0.00000000	      0.00000000
      1.52000000	      0.88545492	     -1.94658223	     12.24848582	     -0.29993031	      0.93614112	     -1.02654245	     23.13431503	     -4.60838889	    -20.69041185	    -22.54088935	     -0.39341274	     -5.17603597	     -4.17588068	      1.21949627	    -11.42811058	     10.10561944	     10.81554090	    -27.69757737	     -0.48341392	     -1.40374824	     -4.56218632	    -14.23668749	     -5.38972059	      3.22898404	     -9.38624653	     -3.43607333	     -8.71952448	    -18.97830130	     15.90929802	     89.95437384	      0.00000000	      0.00000000	     12.29051927	     13.26528360	     -3.08271951	     33.94672122	     89.95437384	      0.00000000	      0.00000000
      1.53000000	      0.70996936	     -2.77702216	     11.95641721	     -0.28821354	      0.93650408	     -1.02292454	     23.12932024	     -2.85616800	    -18.89738918	    -22.80531666	     -0.39802786	     -5.54403308	     -7.21944598	      0.71106520	    -10.08219414	     11.64072124	     11.61004571	    -30.58263991	     -0.53376776	     -3.38221464	     -4.24088551	    -13.70644654	     -4.81515203	      3.95365531	     -8.86823741	     -3.30396210	     -8.77924858	    -18.35650794	     15.84143091	     89.95437384	      0.00000000	      0.00000000	     11.42377204	     12.93670555	     -2.39892765	     33.46214648	     89.95437384	      0.00000000	      0.00000000
      1.54000000	      0.86144279	     -2.97346891	     11.76249511	     -0.27643265	      0.93777481	     -1.02015274	     22.59146561	     -2.13666815	    -18.29587243	    -23.43595222	     -0.40903453	     -4.61908539	     -7.69298383	      0.48126378	     -9.26620128	     12.28481869	     11.70225885	    -32.98924375	     -0.57577092	     -5.86353085	     -2.43120724	    -12.75098504	     -4.73565487	      4.08100836	     -8.41040702	     -3.05157332	     -8.78838379	    -17.99726762	     15.67048707	     89.95437384	      0.00000000	      0.00000000	     10.64294450	     12.76842957	     -2.23119401	     32.97428770	     89.95437384	      0.00000000	      0.00000000
      1.55000000	      0.97769800	     -3.22313789	     11.56109428	     -0.26502803	      0.93909892	     -1.01743725	     21.97206799	     -1.35639379	    -17.78139126	    -23.77800937	     -0.41500455	     -3.73449754	     -8.10107917	      0.33271087	     -8.17070849	     12.93939783	     11.64643529	    -35.54429932	     -0.62036505	     -8.57735098	     -0.46486658	    -11.76711139	     -4.62673308	      4.26852548	     -8.00223727	     -2.73156609	     -8.83976993	    -17.64882712	     15.53239022	     89.95437384	      0.00000000	      0.00000000	      9.83887508	     12.62047264	     -2.09352510	     32.40561334	     89.95437384	      0.00000000	      0.00000000
